<svg xmlns="http://www.w3.org/2000/svg" viewBox="0 0 64 34" role="img" aria-label="">
  <defs>
    <linearGradient id="featherWash" x1="0" y1="1" x2="1" y2="0">
      <stop offset="0" stop-color="#1d568e" stop-opacity="0.92"/>
      <stop offset="0.52" stop-color="#5d98ca" stop-opacity="0.82"/>
      <stop offset="1" stop-color="#b8d8ee" stop-opacity="0.72"/>
    </linearGradient>
    <filter id="softEdge" x="-15%" y="-25%" width="130%" height="150%">
      <feGaussianBlur stdDeviation="0.18"/>
    </filter>
  </defs>
  <g filter="url(#softEdge)" stroke-linecap="round" stroke-linejoin="round">
    <path d="M8 28 C21 11 39 3 57 5 C52 16 40 27 20 29 C15 30 11 29 8 28Z" fill="url(#featherWash)"/>
    <path d="M8 30 C20 23 33 16 54 7" fill="none" stroke="#174b7d" stroke-opacity="0.86" stroke-width="1.35"/>
    <g fill="none" stroke="#f8fcff" stroke-opacity="0.72" stroke-width="1.05">
      <path d="M18 24 L14 17"/>
      <path d="M24 21 L21 13"/>
      <path d="M31 17 L29 9"/>
      <path d="M37 14 L37 7"/>
      <path d="M22 24 L29 27"/>
      <path d="M29 20 L38 23"/>
      <path d="M37 16 L47 18"/>
      <path d="M45 12 L53 13"/>
    </g>
  </g>
</svg>
