<svg xmlns="http://www.w3.org/2000/svg" viewBox="0 0 1254 1254">
  <title>Web Design at Sheila Tulok</title>
  <g fill="#000000">
  <path d="M 922.0 250.0 L 838.0 260.0 L 757.0 292.0 L 691.0 346.0 L 649.0 431.0 L 666.0 344.0 L 612.0 386.0 L 544.0 463.0 L 490.0 558.0 L 471.0 651.0 L 456.0 588.0 L 427.0 649.0 L 407.0 730.0 L 410.0 814.0 L 389.0 804.0 L 413.0 854.0 L 343.0 994.0 L 334.0 1040.0 L 364.0 1022.0 L 446.0 816.0 L 557.0 630.0 L 667.0 486.0 L 773.0 385.0 L 590.0 620.0 L 411.0 934.0 L 439.0 913.0 L 517.0 908.0 L 571.0 885.0 L 608.0 856.0 L 549.0 863.0 L 497.0 852.0 L 585.0 837.0 L 640.0 815.0 L 742.0 720.0 L 680.0 734.0 L 619.0 730.0 L 730.0 697.0 L 803.0 629.0 L 832.0 571.0 L 770.0 588.0 L 712.0 584.0 L 805.0 555.0 L 855.0 506.0 L 888.0 423.0 L 834.0 442.0 L 791.0 443.0 L 848.0 419.0 L 883.0 386.0 L 909.0 329.0 Z"/>
  </g>
</svg>
