<svg xmlns="http://www.w3.org/2000/svg" viewBox="0 0 32 32" width="32" height="32" aria-hidden="true">
  <defs>
    <linearGradient id="handFill" x1="8" y1="3" x2="24" y2="30" gradientUnits="userSpaceOnUse">
      <stop offset="0" stop-color="#82c2ff"/>
      <stop offset="0.48" stop-color="#4592f7"/>
      <stop offset="1" stop-color="#214f82"/>
    </linearGradient>
    <filter id="handShadow" x="-30%" y="-30%" width="160%" height="160%">
      <feDropShadow dx="0.8" dy="1.4" stdDeviation="0.85" flood-color="#17304d" flood-opacity="0.3"/>
    </filter>
  </defs>
  <path filter="url(#handShadow)" d="M10.2 2.2c2 0 3.55 1.55 3.55 3.55v8.35l.65-.55a3.08 3.08 0 0 1 4.2.28l.43.48.65-.42a3.1 3.1 0 0 1 4.05.6l.35.43.36-.2a2.98 2.98 0 0 1 3.95 4.1l-3.2 7.08A6.28 6.28 0 0 1 19.45 30h-6.3a6.4 6.4 0 0 1-5.1-2.52l-4.25-5.6a3.16 3.16 0 0 1 4.68-4.23l.52.45V5.75c0-2 1.28-3.55 3.2-3.55Z" fill="#fff" stroke="#fff" stroke-width="2" stroke-linejoin="round"/>
  <path d="M10.2 2.2c2 0 3.55 1.55 3.55 3.55v8.35l.65-.55a3.08 3.08 0 0 1 4.2.28l.43.48.65-.42a3.1 3.1 0 0 1 4.05.6l.35.43.36-.2a2.98 2.98 0 0 1 3.95 4.1l-3.2 7.08A6.28 6.28 0 0 1 19.45 30h-6.3a6.4 6.4 0 0 1-5.1-2.52l-4.25-5.6a3.16 3.16 0 0 1 4.68-4.23l.52.45V5.75c0-2 1.28-3.55 3.2-3.55Z" fill="url(#handFill)" stroke="#17304d" stroke-width="0.95" stroke-linejoin="round"/>
  <path d="M10.3 5.75a1.05 1.05 0 1 1 2.1 0v12.2c0 .82 1 1.22 1.58.64l2.25-2.25a1.02 1.02 0 0 1 1.45 0l.8.8 1.84-1.2a1.02 1.02 0 0 1 1.34.22l.8.98 1.35-.74a.98.98 0 0 1 1.3 1.35l-3.02 6.7a3.78 3.78 0 0 1-3.44 2.22h-5.5a3.92 3.92 0 0 1-3.12-1.54l-4.25-5.58a.82.82 0 0 1 .14-1.16.84.84 0 0 1 1.07.04l3.58 3.18c.67.59 1.73.12 1.73-.78Z" fill="#ffffff" opacity="0.25"/>
  <path d="M13.68 14.15v5.28M18.45 17.08v3.72M22.35 17.15v3.72" stroke="#17304d" stroke-width="0.95" stroke-linecap="round" opacity="0.5"/>
</svg>
