<svg xmlns="http://www.w3.org/2000/svg" viewBox="0 0 1400 150" preserveAspectRatio="none">
  <defs>
    <linearGradient id="water" x1="0" y1="0" x2="1" y2="0">
      <stop offset="0" stop-color="#b9d8f4" stop-opacity="0.1"/>
      <stop offset="0.18" stop-color="#6da7dd" stop-opacity="0.55"/>
      <stop offset="0.5" stop-color="#326fa8" stop-opacity="0.64"/>
      <stop offset="0.82" stop-color="#6da7dd" stop-opacity="0.55"/>
      <stop offset="1" stop-color="#b9d8f4" stop-opacity="0.1"/>
    </linearGradient>
    <linearGradient id="reed" x1="0" y1="0" x2="1" y2="1">
      <stop offset="0" stop-color="#d7e9f8" stop-opacity="0.8"/>
      <stop offset="1" stop-color="#5d91c4" stop-opacity="0.6"/>
    </linearGradient>
    <linearGradient id="birdFill" x1="0" y1="0" x2="0" y2="1">
      <stop offset="0" stop-color="#ffffff" stop-opacity="0.98"/>
      <stop offset="0.54" stop-color="#e5f1fa" stop-opacity="0.94"/>
      <stop offset="1" stop-color="#a8cce9" stop-opacity="0.86"/>
    </linearGradient>
    <linearGradient id="birdBlue" x1="0" y1="0" x2="1" y2="1">
      <stop offset="0" stop-color="#326da7" stop-opacity="0.9"/>
      <stop offset="0.52" stop-color="#79add6" stop-opacity="0.82"/>
      <stop offset="1" stop-color="#c5dff1" stop-opacity="0.72"/>
    </linearGradient>
    <linearGradient id="birdDeepBlue" x1="0" y1="0" x2="1" y2="1">
      <stop offset="0" stop-color="#173f70" stop-opacity="0.92"/>
      <stop offset="1" stop-color="#5e94c5" stop-opacity="0.78"/>
    </linearGradient>
    <linearGradient id="logFill" x1="0" y1="0" x2="1" y2="1">
      <stop offset="0" stop-color="#d1c2a9" stop-opacity="0.76"/>
      <stop offset="0.5" stop-color="#a8aaa2" stop-opacity="0.78"/>
      <stop offset="1" stop-color="#71899a" stop-opacity="0.68"/>
    </linearGradient>
    <filter id="softWash" x="-20%" y="-30%" width="140%" height="170%">
      <feGaussianBlur stdDeviation="5"/>
    </filter>
    <filter id="paintedBird" x="-12%" y="-18%" width="124%" height="136%" color-interpolation-filters="sRGB">
      <feTurbulence type="fractalNoise" baseFrequency="0.018 0.07" numOctaves="2" seed="19" result="paper"/>
      <feDisplacementMap in="SourceGraphic" in2="paper" scale="0.8" xChannelSelector="R" yChannelSelector="B" result="paintEdge"/>
      <feGaussianBlur in="paintEdge" stdDeviation="0.12" result="softPaint"/>
      <feBlend in="paintEdge" in2="softPaint" mode="multiply"/>
    </filter>
    <g id="willowLeaf">
      <path d="M0 0 C8 -7 21 -7 29 0 C21 7 8 7 0 0Z" fill="url(#reed)" stroke="#4f82b5" stroke-opacity="0.42" stroke-width="0.7"/>
      <path d="M2 0 H26" stroke="#376fa8" stroke-opacity="0.34" stroke-width="0.55" stroke-linecap="round"/>
    </g>
    <g id="leftFacingDuck" stroke-linecap="round" stroke-linejoin="round" filter="url(#paintedBird)">
      <path d="M28 31 C44 18 68 17 88 26 C98 31 108 31 117 27 C110 42 86 50 59 49 C43 49 32 42 28 31Z" fill="url(#birdFill)" stroke="#245a90" stroke-opacity="0.52" stroke-width="1.25"/>
      <path d="M37 28 C28 31 19 27 18 20 C17 12 25 6 34 7 C43 8 49 15 47 22 C46 26 42 28 37 28Z" fill="#f4f9fd" stroke="#245a90" stroke-opacity="0.5" stroke-width="1.1"/>
      <path d="M20 17 C23 8 34 4 42 10 C38 12 34 15 31 20 C27 19 23 18 20 17Z" fill="url(#birdDeepBlue)" fill-opacity="0.86"/>
      <path d="M23 22 C29 20 35 20 41 23 C37 26 31 27 26 25Z" fill="#8db9dc" fill-opacity="0.66"/>
      <path d="M39 26 C43 28 47 31 50 34" fill="none" stroke="#2e659c" stroke-opacity="0.48" stroke-width="2.5"/>
      <path d="M19 16 L4 20 L19 24 C17 21 17 18 19 16Z" fill="#7799b9" fill-opacity="0.9" stroke="#2e659c" stroke-opacity="0.58" stroke-width="0.7"/>
      <circle cx="33" cy="14" r="1.3" fill="#173f6f"/>
      <path d="M47 29 C61 20 80 22 98 33 C80 32 65 37 51 43 C48 39 47 34 47 29Z" fill="url(#birdBlue)" stroke="#326a9f" stroke-opacity="0.3" stroke-width="0.65"/>
      <path d="M58 28 C70 26 82 29 91 34 C79 32 68 35 57 39" fill="none" stroke="#f7fbfe" stroke-opacity="0.78" stroke-width="2.2"/>
      <g fill="none" stroke="#2f699f" stroke-opacity="0.32" stroke-width="0.65">
        <path d="M55 29 C67 25 80 27 91 33"/>
        <path d="M58 35 C70 31 82 32 92 36"/>
        <path d="M63 40 C73 37 82 37 88 39"/>
      </g>
      <path d="M100 31 C108 31 113 30 117 27 C114 35 108 39 101 41" fill="none" stroke="#2e659c" stroke-opacity="0.5" stroke-width="0.8"/>
    </g>
    <g id="leftFacingHeron" stroke-linecap="round" stroke-linejoin="round" filter="url(#paintedBird)">
      <path d="M66 79 C88 61 123 62 151 79 C161 85 170 86 178 82 C170 97 146 106 118 107 C94 108 74 99 66 79Z" fill="url(#birdFill)" stroke="#245a90" stroke-opacity="0.5" stroke-width="1.35"/>
      <path d="M77 84 C59 76 53 62 60 48 C67 35 79 29 76 18" fill="none" stroke="#2e659c" stroke-opacity="0.78" stroke-width="7.5"/>
      <path d="M77 84 C59 76 53 62 60 48 C67 35 79 29 76 18" fill="none" stroke="#edf6fc" stroke-opacity="0.94" stroke-width="5.1"/>
      <path d="M64 11 C73 7 83 9 89 15 C84 22 75 25 65 21 C59 18 59 14 64 11Z" fill="#f6fbfe" stroke="#245a90" stroke-opacity="0.5" stroke-width="1.1"/>
      <path d="M68 10 C77 7 85 10 88 15 C82 14 76 15 71 19 C68 17 67 13 68 10Z" fill="url(#birdDeepBlue)" fill-opacity="0.82"/>
      <path d="M61 13 L13 18 L61 21 C58 18 58 15 61 13Z" fill="#7899b7" fill-opacity="0.92" stroke="#2e659c" stroke-opacity="0.6" stroke-width="0.75"/>
      <circle cx="70" cy="14" r="1.35" fill="#173f6f"/>
      <path d="M81 10 C93 5 103 6 112 10" fill="none" stroke="#315f8f" stroke-opacity="0.68" stroke-width="1.2"/>
      <path d="M61 34 C66 31 71 30 76 31" fill="none" stroke="#315f8f" stroke-opacity="0.44" stroke-width="1"/>
      <path d="M81 78 C103 65 131 68 151 83 C130 81 110 89 91 99 C86 94 83 87 81 78Z" fill="url(#birdBlue)" stroke="#326a9f" stroke-opacity="0.3" stroke-width="0.72"/>
      <path d="M96 78 C111 72 128 75 141 82 C125 80 111 85 98 91" fill="none" stroke="#f8fcff" stroke-opacity="0.72" stroke-width="2.5"/>
      <g fill="none" stroke="#2f699f" stroke-opacity="0.32" stroke-width="0.7">
        <path d="M95 78 C112 72 130 76 144 84"/>
        <path d="M98 85 C115 79 130 81 143 87"/>
        <path d="M103 92 C118 87 131 88 139 91"/>
        <path d="M111 98 C121 94 131 94 136 96"/>
      </g>
      <g fill="none" stroke="#315f8f" stroke-opacity="0.7" stroke-width="1.15">
        <path d="M100 103 L97 132 L84 136"/>
        <path d="M117 104 L120 132 L135 135"/>
      </g>
    </g>
  </defs>

  <g filter="url(#softWash)" opacity="0.38">
    <ellipse cx="190" cy="112" rx="190" ry="28" fill="#9fc8ec"/>
    <ellipse cx="700" cy="108" rx="300" ry="24" fill="#d4e7f8"/>
    <ellipse cx="1195" cy="110" rx="210" ry="30" fill="#a9cfef"/>
  </g>

  <g opacity="0.76">
    <path d="M34 127 C180 109 292 137 430 118 S690 132 834 115 S1102 134 1368 111" fill="none" stroke="url(#water)" stroke-width="2.2" stroke-linecap="round"/>
    <path d="M82 137 C220 124 326 143 472 130 S744 143 886 127 S1134 144 1318 128" fill="none" stroke="#8db9e3" stroke-opacity="0.42" stroke-width="1.1" stroke-linecap="round"/>
    <path d="M476 98 C575 84 648 109 752 94 S932 108 1016 94" fill="none" stroke="#6f9fce" stroke-opacity="0.38" stroke-width="1" stroke-linecap="round"/>
  </g>

  <g stroke-linecap="round" stroke-linejoin="round">
    <g fill="none" stroke="#3c73a9" stroke-opacity="0.67">
      <path d="M106 130 C107 99 105 67 111 28" stroke-width="1.7"/>
      <path d="M143 131 C144 102 144 74 140 42" stroke-width="1.55"/>
      <path d="M181 132 C179 103 181 72 190 34" stroke-width="1.7"/>
      <path d="M219 133 C216 111 214 90 219 64" stroke-width="1.4"/>
      <path d="M258 132 C254 107 255 81 264 52" stroke-width="1.55"/>
    </g>
    <g fill="#4b78a4" fill-opacity="0.78" stroke="#295b8d" stroke-opacity="0.5" stroke-width="0.8">
      <path d="M105 31 C104 18 108 11 113 11 C118 12 120 20 117 33 C113 38 108 37 105 31Z"/>
      <path d="M136 45 C134 33 138 26 143 26 C148 27 150 35 147 47 C144 51 139 50 136 45Z"/>
      <path d="M185 37 C184 23 188 16 193 16 C198 17 200 25 197 39 C193 44 188 43 185 37Z"/>
      <path d="M260 55 C258 43 262 36 267 36 C272 37 274 45 271 57 C268 61 263 60 260 55Z"/>
    </g>
    <g fill="url(#reed)" stroke="#5f91bf" stroke-opacity="0.35" stroke-width="0.65">
      <path d="M93 129 C79 91 82 62 93 45 C92 79 96 102 101 129Z"/>
      <path d="M119 129 C132 91 130 67 123 51 C122 81 119 105 115 129Z"/>
      <path d="M158 130 C147 99 151 71 162 52 C159 80 160 107 164 130Z"/>
      <path d="M201 131 C211 96 211 73 204 58 C204 87 200 108 196 131Z"/>
      <path d="M231 131 C220 101 225 82 237 65 C233 89 233 108 235 131Z"/>
      <path d="M276 131 C289 105 287 81 279 67 C280 93 276 113 272 131Z"/>
    </g>
  </g>

  <g fill="none" stroke="#356da5" stroke-opacity="0.54" stroke-width="1.15" stroke-linecap="round">
    <path d="M348 105 C380 86 397 62 407 33"/>
    <path d="M563 102 C592 86 609 65 618 39"/>
    <path d="M755 100 C782 84 800 62 810 36"/>
    <path d="M935 101 C960 86 977 68 987 45"/>
  </g>
  <g>
    <use href="#willowLeaf" transform="translate(378 74) rotate(-127) scale(.82)"/>
    <use href="#willowLeaf" transform="translate(398 48) rotate(-82) scale(.69)"/>
    <use href="#willowLeaf" transform="translate(584 79) rotate(-126) scale(.78)"/>
    <use href="#willowLeaf" transform="translate(608 53) rotate(-79) scale(.66)"/>
    <use href="#willowLeaf" transform="translate(780 75) rotate(-126) scale(.8)"/>
    <use href="#willowLeaf" transform="translate(801 49) rotate(-80) scale(.68)"/>
    <use href="#willowLeaf" transform="translate(956 79) rotate(-124) scale(.74)"/>
    <use href="#willowLeaf" transform="translate(979 57) rotate(-76) scale(.64)"/>
  </g>

  <use href="#leftFacingDuck" transform="translate(690 91) scale(.78)" opacity="0.72"/>
  <use href="#leftFacingDuck" transform="translate(790 82) scale(.92)" opacity="0.88"/>

  <g stroke-linecap="round" stroke-linejoin="round">
    <path d="M1160 134 C1205 125 1262 127 1320 123 C1350 121 1376 124 1388 132 C1372 142 1332 145 1282 145 C1231 145 1188 141 1160 134Z" fill="url(#logFill)" stroke="#55768b" stroke-opacity="0.58" stroke-width="1.1"/>
    <path d="M1190 133 C1233 129 1273 131 1315 127" fill="none" stroke="#eef5f8" stroke-opacity="0.46" stroke-width="1"/>
    <path d="M1218 138 C1260 134 1306 136 1344 130" fill="none" stroke="#5c7f91" stroke-opacity="0.34" stroke-width="0.8"/>
    <path d="M1250 128 L1261 112 L1257 130" fill="url(#logFill)" stroke="#55768b" stroke-opacity="0.52" stroke-width="0.9"/>
    <path d="M1367 125 C1380 126 1387 128 1390 133 C1385 138 1377 140 1367 140 C1372 135 1373 130 1367 125Z" fill="#8d9b9d" fill-opacity="0.62" stroke="#55768b" stroke-opacity="0.46" stroke-width="0.8"/>
    <path d="M1373 128 C1380 130 1382 133 1375 138 M1380 129 C1385 132 1384 135 1379 137" fill="none" stroke="#dce6e8" stroke-opacity="0.52" stroke-width="0.65"/>
    <ellipse cx="1300" cy="133" rx="7" ry="3.5" fill="none" stroke="#5c7f91" stroke-opacity="0.36" stroke-width="0.75"/>
  </g>
  <use href="#leftFacingHeron" transform="translate(1170 1) scale(.96)"/>

  <g fill="none" stroke="#4f83b5" stroke-opacity="0.42" stroke-width="1">
    <ellipse cx="742" cy="126" rx="42" ry="5"/>
    <ellipse cx="844" cy="127" rx="48" ry="6"/>
  </g>
  <g fill="#9fc4e6" fill-opacity="0.44" stroke="#4e82b4" stroke-opacity="0.36" stroke-width="0.7">
    <path d="M625 120 C641 110 662 111 676 122 C662 130 639 130 625 120Z"/>
    <path d="M913 122 C929 113 949 115 960 126 C944 132 925 131 913 122Z"/>
  </g>
</svg>
